Coordinates
version=1
nRows=38
nColumns=38
inDegrees=no

Units are S.I. units (second, meters, Newtons, ...)
If the header above contains a line with 'inDegrees', this indicates whether rotational values are in degrees (yes) or radians (no).

endheader
time	pelvis_tilt	pelvis_list	pelvis_rotation	pelvis_tx	pelvis_ty	pelvis_tz	hip_flexion_r	hip_adduction_r	hip_rotation_r	knee_angle_r	ankle_angle_r	subtalar_angle_r	mtp_angle_r	hip_flexion_l	hip_adduction_l	hip_rotation_l	knee_angle_l	ankle_angle_l	subtalar_angle_l	mtp_angle_l	lumbar_extension	lumbar_bending	lumbar_rotation	arm_flex_r	arm_add_r	arm_rot_r	elbow_flex_r	pro_sup_r	wrist_flex_r	wrist_dev_r	arm_flex_l	arm_add_l	arm_rot_l	elbow_flex_l	pro_sup_l	wrist_flex_l	wrist_dev_l
1.1	0.412022	1.47491	1.32857	0.539072	0.826292	0.994517	0.558653	-0.0257297	-0.0472235	0.222885	-0.316165	0	0	-0.0719446	-0.131868	-0.216264	0.595944	-0.0869656	0	0	-0.0727449	0.0962505	-0.0706146	-0.306235	-0.318417	0.225243	0.613888	0.874485	0	0	0.589099	-0.53899	1.08733	0.40916	1.28657	0	0
1.11	0.440658	1.47107	1.304	0.539794	0.839183	0.99423	0.566841	-0.0230303	-0.0560142	0.251481	-0.311537	0	0	-0.072744	-0.139958	-0.207697	0.607707	-0.100652	0	0	-0.067441	0.106225	-0.0778891	-0.302403	-0.323068	0.24212	0.606064	0.859571	0	0	0.565217	-0.543694	1.05949	0.410484	1.29857	0	0
1.12	0.46551	1.46661	1.28061	0.540701	0.852103	0.994249	0.580656	-0.0201654	-0.0674583	0.295149	-0.293604	0	0	-0.0722595	-0.147434	-0.199549	0.621209	-0.11589	0	0	-0.0614733	0.115612	-0.0853967	-0.295806	-0.328337	0.263717	0.596444	0.843925	0	0	0.535882	-0.550968	1.02332	0.416424	1.30963	0	0
1.13	0.495235	1.46348	1.25015	0.541811	0.865049	0.994715	0.59252	-0.01574	-0.0756144	0.341454	-0.272395	0	0	-0.0726035	-0.154753	-0.192476	0.636866	-0.125902	0	0	-0.058453	0.125245	-0.0948771	-0.286556	-0.333382	0.28423	0.587455	0.833208	0	0	0.499556	-0.563799	0.979014	0.432041	1.31172	0	0
1.14	0.546023	1.46426	1.19661	0.543034	0.877965	0.995848	0.594542	-0.00859371	-0.0774839	0.375386	-0.291273	0	0	-0.0772145	-0.163012	-0.189258	0.653819	-0.14174	0	0	-0.0615976	0.136444	-0.0823103	-0.292457	-0.330559	0.269295	0.582944	0.835969	0	0	0.493716	-0.552023	0.9948	0.412539	1.30801	0	0
1.15	0.549889	1.46165	1.18916	0.544333	0.891011	0.996449	0.611177	-0.00784366	-0.091647	0.433374	-0.264639	0	0	-0.0728151	-0.168663	-0.190816	0.677802	-0.183581	0	0	-0.0572934	0.143766	-0.0757252	-0.295844	-0.328846	0.262336	0.577176	0.831945	0	0	0.478348	-0.547042	1.00787	0.400873	1.28216	0	0
1.16	0.566889	1.46221	1.16911	0.545745	0.904141	0.99759	0.614221	-0.00598617	-0.101864	0.467968	-0.250051	0	0	-0.0698485	-0.174187	-0.19062	0.704855	-0.210763	0	0	-0.0585516	0.15141	-0.0802986	-0.289076	-0.331092	0.274684	0.568893	0.825107	0	0	0.444559	-0.553413	0.97193	0.407833	1.28571	0	0
1.17	0.579118	1.46364	1.15379	0.547361	0.917345	0.998747	0.612003	-0.00474589	-0.114567	0.493395	-0.238487	0	0	-0.0649264	-0.178334	-0.188113	0.734849	-0.233257	0	0	-0.0603235	0.157574	-0.0853163	-0.282204	-0.332306	0.28635	0.560377	0.821369	0	0	0.409236	-0.560006	0.936021	0.41609	1.28803	0	0
1.18	0.584301	1.46519	1.14514	0.549184	0.930534	0.999807	0.60621	-0.00357597	-0.128459	0.510642	-0.225884	0	0	-0.0573519	-0.180725	-0.182189	0.766883	-0.248221	0	0	-0.0622969	0.162487	-0.0919723	-0.274593	-0.333399	0.298683	0.552963	0.819377	0	0	0.369663	-0.568516	0.894643	0.429188	1.28838	0	0
1.19	0.595197	1.46742	1.13003	0.551142	0.943543	1.0008	0.595989	-0.00055607	-0.140106	0.518837	-0.234017	0	0	-0.0479068	-0.183214	-0.176472	0.801721	-0.270909	0	0	-0.0644524	0.167595	-0.0790749	-0.281541	-0.329274	0.286145	0.550051	0.819395	0	0	0.361361	-0.558018	0.915926	0.410488	1.28206	0	0
1.2	0.597124	1.46861	1.12397	0.553156	0.956331	1.00152	0.587466	0.0025287	-0.150515	0.528328	-0.23387	0	0	-0.0336486	-0.184664	-0.168708	0.84094	-0.299707	0	0	-0.0649789	0.171957	-0.0709037	-0.286726	-0.325289	0.27369	0.548375	0.818647	0	0	0.346665	-0.552248	0.931334	0.399412	1.26646	0	0
1.21	0.577342	1.46723	1.13939	0.555244	0.968934	1.00183	0.584607	0.00481094	-0.159523	0.544271	-0.192583	0	0	-0.012549	-0.184803	-0.159505	0.88425	-0.343803	0	0	-0.0605971	0.174473	-0.0672896	-0.289127	-0.323184	0.270685	0.545694	0.81284	0	0	0.327344	-0.55207	0.954525	0.39587	1.22617	0	0
1.22	0.568246	1.46704	1.14364	0.557268	0.981206	1.00241	0.577486	0.0088077	-0.163529	0.552755	-0.175835	0	0	0.00824624	-0.183201	-0.145881	0.929434	-0.361714	0	0	-0.0615654	0.177879	-0.0678756	-0.285643	-0.324571	0.278551	0.543419	0.80894	0	0	0.295715	-0.55262	0.921099	0.400252	1.2393	0	0
1.23	0.560996	1.46807	1.14524	0.559237	0.99316	1.00317	0.568033	0.0132801	-0.163773	0.558605	-0.161759	0	0	0.0291257	-0.179975	-0.131377	0.975185	-0.375585	0	0	-0.0649856	0.180527	-0.0680999	-0.280697	-0.326205	0.286857	0.541077	0.806041	0	0	0.264014	-0.552915	0.886369	0.40606	1.25355	0	0
1.24	0.553129	1.4704	1.14704	0.561124	1.00484	1.00411	0.556307	0.0178012	-0.16085	0.562505	-0.147523	0	0	0.0499628	-0.175282	-0.117	1.02081	-0.386222	0	0	-0.0707366	0.182088	-0.0709327	-0.272465	-0.328219	0.297811	0.537826	0.804924	0	0	0.228324	-0.554401	0.843011	0.416354	1.26594	0	0
1.25	0.556844	1.4751	1.1369	0.56298	1.01633	1.00529	0.540812	0.0229712	-0.155736	0.56407	-0.150518	0	0	0.0690434	-0.171394	-0.106257	1.06539	-0.401959	0	0	-0.077942	0.183649	-0.0569018	-0.276593	-0.326119	0.287393	0.537946	0.801582	0	0	0.222581	-0.544272	0.867404	0.401347	1.25727	0	0
1.26	0.560258	1.48061	1.12728	0.564827	1.02771	1.00657	0.524851	0.0276008	-0.1504	0.566515	-0.147197	0	0	0.0884753	-0.167285	-0.0969997	1.10828	-0.419203	0	0	-0.0861033	0.184331	-0.0463829	-0.27797	-0.324268	0.279318	0.53685	0.798237	0	0	0.212162	-0.536111	0.88324	0.390439	1.24548	0	0
1.27	0.563769	1.48678	1.11777	0.566663	1.03898	1.00791	0.508265	0.0318744	-0.144781	0.568577	-0.138643	0	0	0.107721	-0.163068	-0.0891398	1.14766	-0.435229	0	0	-0.0948255	0.184248	-0.0366697	-0.278135	-0.322291	0.272802	0.534491	0.795032	0	0	0.201451	-0.528339	0.899764	0.380523	1.22855	0	0
1.28	0.569492	1.49274	1.10655	0.568474	1.05012	1.00928	0.490756	0.0362849	-0.138984	0.568407	-0.130295	0	0	0.12738	-0.159086	-0.0817183	1.18364	-0.442023	0	0	-0.103715	0.184017	-0.0289432	-0.276025	-0.320715	0.270455	0.530279	0.792501	0	0	0.18826	-0.520869	0.907229	0.372491	1.21691	0	0
1.29	0.558097	1.496	1.11351	0.570209	1.06128	1.01055	0.47566	0.0399223	-0.135092	0.568788	-0.0851425	0	0	0.150656	-0.154755	-0.0735465	1.21662	-0.434405	0	0	-0.111689	0.183436	-0.0443741	-0.254192	-0.325373	0.305447	0.517413	0.783682	0	0	0.137132	-0.516914	0.791601	0.383646	1.28227	0	0
1.3	0.594558	1.50404	1.07184	0.57201	1.07209	1.01208	0.452854	0.0444248	-0.131128	0.563953	-0.0886231	0	0	0.167269	-0.153098	-0.0705307	1.24612	-0.417812	0	0	-0.117698	0.182988	-0.0113673	-0.270239	-0.320448	0.2878	0.516036	0.758017	0	0	0.172036	-0.504542	0.970447	0.350255	1.14138	0	0
1.31	0.598433	1.50863	1.06287	0.573774	1.08291	1.01344	0.433767	0.0478109	-0.127411	0.557914	-0.0805504	0	0	0.188606	-0.150493	-0.0680205	1.27201	-0.397469	0	0	-0.125137	0.182262	-0.00778665	-0.264003	-0.319973	0.294381	0.508384	0.752746	0	0	0.153506	-0.495676	0.954018	0.342807	1.14662	0	0
1.32	0.593437	1.51276	1.06215	0.575602	1.09357	1.01476	0.414494	0.0507514	-0.123691	0.549717	-0.0739276	0	0	0.210621	-0.147809	-0.0674485	1.29432	-0.376438	0	0	-0.13176	0.180817	-0.00387956	-0.257868	-0.319166	0.300301	0.50063	0.74863	0	0	0.135352	-0.486764	0.936916	0.335653	1.15354	0	0
1.33	0.584407	1.51649	1.06482	0.577484	1.1041	1.01602	0.395306	0.0534257	-0.120652	0.540536	-0.0677023	0	0	0.23282	-0.145424	-0.0685679	1.31304	-0.352838	0	0	-0.137911	0.179097	6.66816e-05	-0.251783	-0.318312	0.305801	0.493185	0.745154	0	0	0.117029	-0.477529	0.915924	0.32875	1.16453	0	0
1.34	0.574634	1.5199	1.06762	0.579389	1.11452	1.01724	0.375645	0.0562534	-0.117619	0.529446	-0.0628367	0	0	0.254885	-0.143523	-0.0712276	1.32791	-0.3304	0	0	-0.143871	0.17731	0.00444952	-0.246214	-0.317413	0.309796	0.486482	0.743786	0	0	0.0991389	-0.468041	0.892919	0.322226	1.17867	0	0
1.35	0.544797	1.52127	1.09009	0.581256	1.12497	1.01837	0.357551	0.059294	-0.114105	0.517036	-0.0434542	0	0	0.278818	-0.141817	-0.074688	1.33874	-0.30774	0	0	-0.151044	0.175708	-0.00738179	-0.228314	-0.317545	0.322988	0.4755	0.761947	0	0	0.0555932	-0.453946	0.744688	0.322944	1.29955	0	0
1.36	0.621169	1.52927	1.00582	0.583193	1.13508	1.01993	0.328609	0.0638939	-0.109578	0.4984	-0.0573312	0	0	0.293128	-0.143035	-0.0816627	1.34535	-0.287762	0	0	-0.157205	0.174249	0.0227707	-0.241899	-0.31718	0.319373	0.47733	0.725354	0	0	0.0795425	-0.451947	0.920802	0.308826	1.13959	0	0
1.37	0.689119	1.53444	0.930077	0.585054	1.14526	1.02138	0.302452	0.0687299	-0.103996	0.479606	-0.0566965	0	0	0.309845	-0.14445	-0.0885555	1.34761	-0.269235	0	0	-0.166213	0.173431	0.02958	-0.239143	-0.317357	0.320855	0.474767	0.722918	0	0	0.0661333	-0.442927	0.908775	0.303718	1.14378	0	0
1.38	0.802215	1.5394	0.80994	0.586892	1.15537	1.02285	0.27511	0.0740878	-0.0975084	0.459642	-0.0562776	0	0	0.325333	-0.146938	-0.0957934	1.3458	-0.253108	0	0	-0.175464	0.172917	0.0356439	-0.236692	-0.317411	0.321691	0.47263	0.721669	0	0	0.0533545	-0.434222	0.897175	0.299043	1.14755	0	0
1.39	0.999859	1.54416	0.606166	0.588673	1.16542	1.0244	0.245287	0.0797551	-0.0900768	0.437081	-0.0567392	0	0	0.338683	-0.150603	-0.104278	1.33998	-0.237979	0	0	-0.186096	0.172747	0.040546	-0.234224	-0.317581	0.322222	0.471299	0.720467	0	0	0.0408841	-0.425405	0.882015	0.294512	1.1533	0	0
1.4	1.23742	1.54753	0.362437	0.590396	1.17549	1.02583	0.21618	0.0846583	-0.0820657	0.415095	-0.0555123	0	0	0.3515	-0.154814	-0.115609	1.33038	-0.224461	0	0	-0.195585	0.172092	0.0446308	-0.231854	-0.317696	0.322656	0.469877	0.720248	0	0	0.0280069	-0.416285	0.863897	0.289775	1.16163	0	0
1.41	1.78486	1.54854	-0.190632	0.592053	1.1855	1.02764	0.177363	0.0899466	-0.072138	0.383762	-0.0705909	0	0	0.356478	-0.160515	-0.130325	1.31656	-0.20911	0	0	-0.208249	0.171842	0.0591181	-0.23951	-0.316427	0.308143	0.474093	0.721396	0	0	0.0315877	-0.412748	0.938364	0.286579	1.08257	0	0
1.42	2.16728	1.54492	-0.57797	0.59366	1.19559	1.02916	0.14161	0.0945079	-0.0624264	0.353875	-0.0775878	0	0	0.363442	-0.166418	-0.147024	1.29985	-0.196148	0	0	-0.220169	0.171177	0.0639639	-0.240102	-0.31705	0.30576	0.476212	0.721729	0	0	0.022212	-0.40543	0.934866	0.283667	1.0764	0	0
1.43	2.42963	1.53853	-0.844484	0.595219	1.20567	1.0306	0.104983	0.0988438	-0.0523485	0.322331	-0.0849659	0	0	0.369199	-0.172677	-0.165776	1.28026	-0.182402	0	0	-0.231761	0.170504	0.0676766	-0.241072	-0.317341	0.30249	0.478642	0.721074	0	0	0.0129136	-0.39823	0.929456	0.280986	1.07096	0	0
1.44	2.60185	1.53061	-1.02034	0.596695	1.21569	1.03195	0.0678395	0.102713	-0.0412838	0.289733	-0.0924982	0	0	0.373153	-0.178468	-0.186311	1.25736	-0.165609	0	0	-0.243675	0.169698	0.0704724	-0.242018	-0.318011	0.299708	0.481827	0.720659	0	0	0.00377337	-0.391149	0.92197	0.278766	1.06698	0	0
1.45	2.70121	1.52389	-1.12326	0.598116	1.22563	1.03299	0.034629	0.105766	-0.0309145	0.261093	-0.0957232	0	0	0.377811	-0.182421	-0.206865	1.23112	-0.149341	0	0	-0.253068	0.16841	0.0726318	-0.242506	-0.318707	0.298412	0.484031	0.720617	0	0	-0.00547244	-0.384116	0.913279	0.276553	1.06519	0	0
1.46	2.76	1.51906	-1.1856	0.599489	1.2355	1.03369	0.00569072	0.10817	-0.022619	0.237208	-0.0950313	0	0	0.383471	-0.184103	-0.225773	1.20147	-0.136129	0	0	-0.259712	0.166874	0.0742022	-0.242468	-0.319338	0.298443	0.484944	0.720797	0	0	-0.0148678	-0.37684	0.903111	0.273879	1.06623	0	0
1.47	2.81604	1.50997	-1.24498	0.60086	1.24527	1.03462	-0.0323586	0.11163	-0.0104657	0.201237	-0.117778	0	0	0.382367	-0.185877	-0.244982	1.16712	-0.12452	0	0	-0.269696	0.16661	0.0823768	-0.249711	-0.318571	0.282615	0.49146	0.72768	0	0	-0.0149711	-0.373384	0.946447	0.273806	1.0144	0	0
